<mxfile host="app.diagrams.net" agent="Mozilla/5.0 (X11; Linux x86_64) AppleWebKit/537.36 (KHTML, like Gecko) Chrome/133.0.0.0 Safari/537.36" version="26.0.13">
  <diagram name="Page-1" id="DXon7rcegdVkbVPP70ur">
    <mxGraphModel dx="1195" dy="683" grid="1" gridSize="10" guides="1" tooltips="1" connect="1" arrows="1" fold="1" page="1" pageScale="1" pageWidth="850" pageHeight="1100" math="0" shadow="0">
      <root>
        <mxCell id="0" />
        <mxCell id="1" parent="0" />
        <mxCell id="VaMNhD8pJTYhL6oRgdSs-5" style="edgeStyle=orthogonalEdgeStyle;rounded=0;orthogonalLoop=1;jettySize=auto;html=1;entryX=0;entryY=0.5;entryDx=0;entryDy=0;" edge="1" parent="1" source="VaMNhD8pJTYhL6oRgdSs-1" target="VaMNhD8pJTYhL6oRgdSs-4">
          <mxGeometry relative="1" as="geometry" />
        </mxCell>
        <mxCell id="VaMNhD8pJTYhL6oRgdSs-1" value="olfaction&lt;div&gt;branch&lt;/div&gt;" style="rhombus;whiteSpace=wrap;html=1;" vertex="1" parent="1">
          <mxGeometry x="330" y="40" width="80" height="80" as="geometry" />
        </mxCell>
        <mxCell id="VaMNhD8pJTYhL6oRgdSs-3" style="edgeStyle=orthogonalEdgeStyle;rounded=0;orthogonalLoop=1;jettySize=auto;html=1;entryX=0;entryY=0.5;entryDx=0;entryDy=0;" edge="1" parent="1" source="VaMNhD8pJTYhL6oRgdSs-2" target="VaMNhD8pJTYhL6oRgdSs-1">
          <mxGeometry relative="1" as="geometry" />
        </mxCell>
        <mxCell id="VaMNhD8pJTYhL6oRgdSs-2" value="source position" style="rounded=0;whiteSpace=wrap;html=1;" vertex="1" parent="1">
          <mxGeometry x="230" y="60" width="60" height="40" as="geometry" />
        </mxCell>
        <mxCell id="VaMNhD8pJTYhL6oRgdSs-4" value="plume reading" style="rounded=0;whiteSpace=wrap;html=1;" vertex="1" parent="1">
          <mxGeometry x="440" y="60" width="60" height="40" as="geometry" />
        </mxCell>
        <mxCell id="VaMNhD8pJTYhL6oRgdSs-6" style="edgeStyle=orthogonalEdgeStyle;rounded=0;orthogonalLoop=1;jettySize=auto;html=1;entryX=0;entryY=0.5;entryDx=0;entryDy=0;" edge="1" source="VaMNhD8pJTYhL6oRgdSs-7" target="VaMNhD8pJTYhL6oRgdSs-10" parent="1">
          <mxGeometry relative="1" as="geometry" />
        </mxCell>
        <mxCell id="VaMNhD8pJTYhL6oRgdSs-7" value="objDetector" style="rhombus;whiteSpace=wrap;html=1;" vertex="1" parent="1">
          <mxGeometry x="165" y="280" width="80" height="80" as="geometry" />
        </mxCell>
        <mxCell id="VaMNhD8pJTYhL6oRgdSs-8" style="edgeStyle=orthogonalEdgeStyle;rounded=0;orthogonalLoop=1;jettySize=auto;html=1;entryX=0;entryY=0.5;entryDx=0;entryDy=0;" edge="1" source="VaMNhD8pJTYhL6oRgdSs-9" target="VaMNhD8pJTYhL6oRgdSs-7" parent="1">
          <mxGeometry relative="1" as="geometry" />
        </mxCell>
        <mxCell id="VaMNhD8pJTYhL6oRgdSs-9" value="itemDF" style="rounded=0;whiteSpace=wrap;html=1;" vertex="1" parent="1">
          <mxGeometry x="80" y="300" width="60" height="40" as="geometry" />
        </mxCell>
        <mxCell id="VaMNhD8pJTYhL6oRgdSs-12" style="edgeStyle=orthogonalEdgeStyle;rounded=0;orthogonalLoop=1;jettySize=auto;html=1;entryX=0;entryY=0.5;entryDx=0;entryDy=0;" edge="1" parent="1" source="VaMNhD8pJTYhL6oRgdSs-10" target="VaMNhD8pJTYhL6oRgdSs-11">
          <mxGeometry relative="1" as="geometry" />
        </mxCell>
        <mxCell id="VaMNhD8pJTYhL6oRgdSs-10" value="itemDF update:&lt;div&gt;+ name&lt;/div&gt;&lt;div&gt;+ conf&lt;/div&gt;&lt;div&gt;+ vizLoc&lt;/div&gt;&lt;div&gt;+ depth&lt;/div&gt;" style="rounded=0;whiteSpace=wrap;html=1;" vertex="1" parent="1">
          <mxGeometry x="270" y="280" width="115" height="80" as="geometry" />
        </mxCell>
        <mxCell id="VaMNhD8pJTYhL6oRgdSs-20" style="edgeStyle=orthogonalEdgeStyle;rounded=0;orthogonalLoop=1;jettySize=auto;html=1;" edge="1" parent="1" source="VaMNhD8pJTYhL6oRgdSs-11" target="VaMNhD8pJTYhL6oRgdSs-13">
          <mxGeometry relative="1" as="geometry" />
        </mxCell>
        <mxCell id="VaMNhD8pJTYhL6oRgdSs-11" value="globalLoc" style="rhombus;whiteSpace=wrap;html=1;" vertex="1" parent="1">
          <mxGeometry x="432.5" y="280" width="80" height="80" as="geometry" />
        </mxCell>
        <mxCell id="VaMNhD8pJTYhL6oRgdSs-13" value="itemDF update:&lt;div&gt;+ glb3DLoc&lt;/div&gt;" style="rounded=0;whiteSpace=wrap;html=1;" vertex="1" parent="1">
          <mxGeometry x="550" y="290" width="70" height="60" as="geometry" />
        </mxCell>
        <mxCell id="VaMNhD8pJTYhL6oRgdSs-16" style="edgeStyle=orthogonalEdgeStyle;rounded=0;orthogonalLoop=1;jettySize=auto;html=1;entryX=0.5;entryY=0;entryDx=0;entryDy=0;" edge="1" parent="1" source="VaMNhD8pJTYhL6oRgdSs-15" target="VaMNhD8pJTYhL6oRgdSs-11">
          <mxGeometry relative="1" as="geometry" />
        </mxCell>
        <mxCell id="VaMNhD8pJTYhL6oRgdSs-15" value="robot pos, yaw" style="rounded=0;whiteSpace=wrap;html=1;" vertex="1" parent="1">
          <mxGeometry x="435" y="190" width="75" height="60" as="geometry" />
        </mxCell>
        <mxCell id="VaMNhD8pJTYhL6oRgdSs-19" style="edgeStyle=orthogonalEdgeStyle;rounded=0;orthogonalLoop=1;jettySize=auto;html=1;" edge="1" parent="1" source="VaMNhD8pJTYhL6oRgdSs-17" target="VaMNhD8pJTYhL6oRgdSs-7">
          <mxGeometry relative="1" as="geometry" />
        </mxCell>
        <mxCell id="VaMNhD8pJTYhL6oRgdSs-17" value="depth" style="rounded=0;whiteSpace=wrap;html=1;" vertex="1" parent="1">
          <mxGeometry x="183.75" y="220" width="42.5" height="30" as="geometry" />
        </mxCell>
        <mxCell id="VaMNhD8pJTYhL6oRgdSs-21" style="edgeStyle=orthogonalEdgeStyle;rounded=0;orthogonalLoop=1;jettySize=auto;html=1;entryX=0;entryY=0.5;entryDx=0;entryDy=0;" edge="1" source="VaMNhD8pJTYhL6oRgdSs-22" target="VaMNhD8pJTYhL6oRgdSs-25" parent="1">
          <mxGeometry relative="1" as="geometry" />
        </mxCell>
        <mxCell id="VaMNhD8pJTYhL6oRgdSs-22" value="reasoning branch" style="rhombus;whiteSpace=wrap;html=1;" vertex="1" parent="1">
          <mxGeometry x="290" y="500" width="80" height="80" as="geometry" />
        </mxCell>
        <mxCell id="VaMNhD8pJTYhL6oRgdSs-23" style="edgeStyle=orthogonalEdgeStyle;rounded=0;orthogonalLoop=1;jettySize=auto;html=1;entryX=0;entryY=0.5;entryDx=0;entryDy=0;" edge="1" source="VaMNhD8pJTYhL6oRgdSs-24" target="VaMNhD8pJTYhL6oRgdSs-22" parent="1">
          <mxGeometry relative="1" as="geometry" />
        </mxCell>
        <mxCell id="VaMNhD8pJTYhL6oRgdSs-24" value="itemDF:&lt;div&gt;- name&lt;/div&gt;" style="rounded=0;whiteSpace=wrap;html=1;" vertex="1" parent="1">
          <mxGeometry x="180" y="512.5" width="70" height="55" as="geometry" />
        </mxCell>
        <mxCell id="VaMNhD8pJTYhL6oRgdSs-25" value="itemDF update:&lt;div&gt;+&amp;nbsp;goalSimilarity&lt;/div&gt;" style="rounded=0;whiteSpace=wrap;html=1;" vertex="1" parent="1">
          <mxGeometry x="400" y="520" width="100" height="40" as="geometry" />
        </mxCell>
        <mxCell id="VaMNhD8pJTYhL6oRgdSs-27" style="edgeStyle=orthogonalEdgeStyle;rounded=0;orthogonalLoop=1;jettySize=auto;html=1;" edge="1" parent="1" source="VaMNhD8pJTYhL6oRgdSs-26" target="VaMNhD8pJTYhL6oRgdSs-22">
          <mxGeometry relative="1" as="geometry" />
        </mxCell>
        <mxCell id="VaMNhD8pJTYhL6oRgdSs-26" value="goal" style="rounded=0;whiteSpace=wrap;html=1;" vertex="1" parent="1">
          <mxGeometry x="308.75" y="440" width="42.5" height="30" as="geometry" />
        </mxCell>
        <mxCell id="VaMNhD8pJTYhL6oRgdSs-28" style="edgeStyle=orthogonalEdgeStyle;rounded=0;orthogonalLoop=1;jettySize=auto;html=1;entryX=0;entryY=0.5;entryDx=0;entryDy=0;" edge="1" source="VaMNhD8pJTYhL6oRgdSs-29" target="VaMNhD8pJTYhL6oRgdSs-32" parent="1">
          <mxGeometry relative="1" as="geometry" />
        </mxCell>
        <mxCell id="VaMNhD8pJTYhL6oRgdSs-29" value="nav branch" style="rhombus;whiteSpace=wrap;html=1;" vertex="1" parent="1">
          <mxGeometry x="610" y="880" width="80" height="80" as="geometry" />
        </mxCell>
        <mxCell id="VaMNhD8pJTYhL6oRgdSs-30" style="edgeStyle=orthogonalEdgeStyle;rounded=0;orthogonalLoop=1;jettySize=auto;html=1;entryX=0;entryY=0.5;entryDx=0;entryDy=0;" edge="1" source="VaMNhD8pJTYhL6oRgdSs-31" target="VaMNhD8pJTYhL6oRgdSs-29" parent="1">
          <mxGeometry relative="1" as="geometry" />
        </mxCell>
        <mxCell id="VaMNhD8pJTYhL6oRgdSs-31" value="itemDF:&lt;div&gt;- name&lt;/div&gt;" style="rounded=0;whiteSpace=wrap;html=1;" vertex="1" parent="1">
          <mxGeometry x="500" y="892.5" width="70" height="55" as="geometry" />
        </mxCell>
        <mxCell id="VaMNhD8pJTYhL6oRgdSs-32" value="itemDF update:&lt;div&gt;+&amp;nbsp;goalSimilarity&lt;/div&gt;" style="rounded=0;whiteSpace=wrap;html=1;" vertex="1" parent="1">
          <mxGeometry x="720" y="900" width="100" height="40" as="geometry" />
        </mxCell>
        <mxCell id="VaMNhD8pJTYhL6oRgdSs-33" style="edgeStyle=orthogonalEdgeStyle;rounded=0;orthogonalLoop=1;jettySize=auto;html=1;" edge="1" source="VaMNhD8pJTYhL6oRgdSs-34" target="VaMNhD8pJTYhL6oRgdSs-29" parent="1">
          <mxGeometry relative="1" as="geometry" />
        </mxCell>
        <mxCell id="VaMNhD8pJTYhL6oRgdSs-34" value="goal" style="rounded=0;whiteSpace=wrap;html=1;" vertex="1" parent="1">
          <mxGeometry x="628.75" y="820" width="42.5" height="30" as="geometry" />
        </mxCell>
        <mxCell id="VaMNhD8pJTYhL6oRgdSs-35" style="edgeStyle=orthogonalEdgeStyle;rounded=0;orthogonalLoop=1;jettySize=auto;html=1;entryX=0;entryY=0.5;entryDx=0;entryDy=0;" edge="1" source="VaMNhD8pJTYhL6oRgdSs-36" target="VaMNhD8pJTYhL6oRgdSs-39" parent="1">
          <mxGeometry relative="1" as="geometry" />
        </mxCell>
        <mxCell id="VaMNhD8pJTYhL6oRgdSs-36" value="fusion&lt;div&gt;branch&lt;/div&gt;" style="rhombus;whiteSpace=wrap;html=1;" vertex="1" parent="1">
          <mxGeometry x="210" y="700" width="80" height="80" as="geometry" />
        </mxCell>
        <mxCell id="VaMNhD8pJTYhL6oRgdSs-37" style="edgeStyle=orthogonalEdgeStyle;rounded=0;orthogonalLoop=1;jettySize=auto;html=1;entryX=0;entryY=0.5;entryDx=0;entryDy=0;" edge="1" source="VaMNhD8pJTYhL6oRgdSs-38" target="VaMNhD8pJTYhL6oRgdSs-36" parent="1">
          <mxGeometry relative="1" as="geometry" />
        </mxCell>
        <mxCell id="VaMNhD8pJTYhL6oRgdSs-38" value="itemDF:&lt;div&gt;- name&lt;/div&gt;" style="rounded=0;whiteSpace=wrap;html=1;" vertex="1" parent="1">
          <mxGeometry x="100" y="712.5" width="70" height="55" as="geometry" />
        </mxCell>
        <mxCell id="VaMNhD8pJTYhL6oRgdSs-39" value="itemDF update:&lt;div&gt;+&amp;nbsp;goalSimilarity&lt;/div&gt;" style="rounded=0;whiteSpace=wrap;html=1;" vertex="1" parent="1">
          <mxGeometry x="320" y="720" width="100" height="40" as="geometry" />
        </mxCell>
        <mxCell id="VaMNhD8pJTYhL6oRgdSs-40" style="edgeStyle=orthogonalEdgeStyle;rounded=0;orthogonalLoop=1;jettySize=auto;html=1;" edge="1" source="VaMNhD8pJTYhL6oRgdSs-41" target="VaMNhD8pJTYhL6oRgdSs-36" parent="1">
          <mxGeometry relative="1" as="geometry" />
        </mxCell>
        <mxCell id="VaMNhD8pJTYhL6oRgdSs-41" value="goal" style="rounded=0;whiteSpace=wrap;html=1;" vertex="1" parent="1">
          <mxGeometry x="228.75" y="640" width="42.5" height="30" as="geometry" />
        </mxCell>
      </root>
    </mxGraphModel>
  </diagram>
</mxfile>
